<svg xmlns="http://www.w3.org/2000/svg" width="420" height="420" viewBox="0 0 420 420" fill="none">
  <g opacity=".36">
    <path d="M211 283c-28-37-20-84 14-115 32 37 26 84-14 115Z" fill="#7fb069"/>
    <path d="M188 274c-39-22-52-65-31-104 44 23 55 68 31 104Z" fill="#9ac287"/>
    <path d="M231 252c-6-45 21-80 65-86 7 49-21 83-65 86Z" fill="#6fa15f"/>
    <path d="M123 131c23-41 71-53 111-26-27 42-73 51-111 26Z" fill="#f5a6b6"/>
    <path d="M234 105c41-27 88-15 111 26-39 25-85 14-111-26Z" fill="#ee7f9a"/>
    <path d="M176 88c13-45 55-65 100-50-15 47-58 65-100 50Z" fill="#f7bec9"/>
    <path d="M147 202c-44-11-67-49-57-91 47 11 70 51 57 91Z" fill="#f28ca3"/>
    <path d="M274 202c-13-43 10-81 57-91 10 44-14 81-57 91Z" fill="#d95f84"/>
    <circle cx="211" cy="141" r="44" fill="#fff2cc"/>
    <circle cx="211" cy="141" r="25" fill="#e7b84b"/>
    <path d="M207 169c11 50 2 102-31 156" stroke="#467a4b" stroke-width="15" stroke-linecap="round"/>
    <path d="M182 248c-36-14-70-10-101 14 36 21 70 16 101-14Z" fill="#81b973"/>
    <path d="M216 226c37-11 70-3 99 24-38 17-71 9-99-24Z" fill="#6ea45f"/>
  </g>
</svg>
